<svg xmlns="http://www.w3.org/2000/svg" width="320" height="80" viewBox="0 0 320 80">
  <g stroke="#D8A14A" stroke-width="1.6" fill="none" stroke-linecap="round" stroke-linejoin="round" opacity="0.28">

    <!-- Fork at (22, 40) -->
    <g transform="translate(22,40)">
      <line x1="-4" y1="-18" x2="-4" y2="-8"/>
      <line x1="0" y1="-18" x2="0" y2="-8"/>
      <line x1="4" y1="-18" x2="4" y2="-8"/>
      <path d="M-4,-8 Q0,-3 4,-8"/>
      <line x1="0" y1="-3" x2="0" y2="18"/>
    </g>

    <!-- Leaf / herb at (72, 40) -->
    <g transform="translate(72,40)">
      <path d="M0,14 C-11,-2 -11,-20 0,-24 C11,-20 11,-2 0,14 Z"/>
      <line x1="0" y1="14" x2="0" y2="-24"/>
      <path d="M0,-8 L-5,-14"/>
      <path d="M0,-8 L5,-14"/>
    </g>

    <!-- Coffee cup at (138, 42) -->
    <g transform="translate(138,42)">
      <path d="M-11,-1 L-11,-13 Q-11,-17 -7,-17 L7,-17 Q11,-17 11,-13 L11,-1 Q11,3 0,3 Q-11,3 -11,-1 Z"/>
      <path d="M11,-9 Q16,-9 16,-5 Q16,-1 11,-1"/>
      <path d="M-12,5 Q0,9 12,5"/>
      <path d="M-2,-19 Q0,-23 -2,-27"/>
      <path d="M3,-19 Q5,-23 3,-27"/>
    </g>

    <!-- Small 8-point star ornament at (185, 40) -->
    <g transform="translate(185,40)">
      <line x1="-7" y1="0" x2="7" y2="0"/>
      <line x1="0" y1="-7" x2="0" y2="7"/>
      <line x1="-5" y1="-5" x2="5" y2="5"/>
      <line x1="5" y1="-5" x2="-5" y2="5"/>
    </g>

    <!-- Wheat stalk at (232, 42) -->
    <g transform="translate(232,42)">
      <line x1="0" y1="-30" x2="0" y2="28"/>
      <path d="M0,-20 C-10,-26 -13,-16 -2,-14"/>
      <path d="M0,-11 C10,-17 13,-7 2,-5"/>
      <path d="M0,-2 C-10,-8 -13,2 -2,4"/>
      <path d="M0,8 C10,2 13,12 2,14"/>
    </g>

    <!-- Spoon at (278, 40) rotated -15deg -->
    <g transform="translate(278,40) rotate(-15)">
      <ellipse cx="0" cy="-16" rx="6" ry="8"/>
      <line x1="0" y1="-8" x2="0" y2="18"/>
    </g>

    <!-- Small pot/jar at (310, 41) -->
    <g transform="translate(310,41)">
      <path d="M-8,10 L-10,-2 Q-10,-8 0,-8 Q10,-8 10,-2 L8,10 Q8,13 0,13 Q-8,13 -8,10 Z"/>
      <path d="M-7,-8 Q-7,-14 0,-14 Q7,-14 7,-8"/>
      <circle cx="0" cy="-15" r="2" fill="#D8A14A" opacity="0.28" stroke="none"/>
      <path d="M-10,-1 Q-14,-1 -14,3 Q-14,7 -10,7"/>
      <path d="M10,-1 Q14,-1 14,3 Q14,7 10,7"/>
    </g>

  </g>
</svg>
